<svg id="Calque_1" data-name="Calque 1" xmlns="http://www.w3.org/2000/svg" viewBox="0 0 254.21 68"><title>TOPPlan de travail 1 copie</title><path d="M218.26,13.89V63.94A2.13,2.13,0,0,0,220.31,66H230a2.13,2.13,0,0,0,2-2.06v-50h19.83a2.06,2.06,0,0,0,2.06-2.06V3.06A2.06,2.06,0,0,0,251.84,1H197.35a2.06,2.06,0,0,0-2.06,2.06v8.77a2.06,2.06,0,0,0,2.06,2.06ZM151.53,32.52,130.08,63c-1,1.41,0,3,1.95,3h11.7a2.36,2.36,0,0,0,1.84-1l15.49-21.77h.33L176.66,65a2.2,2.2,0,0,0,1.84,1h11.7A1.93,1.93,0,0,0,192,63L170.59,32.52,191.29,4c1.08-1.41,0-3-1.85-3H177.1a2,2,0,0,0-1.74,1L161.06,22H161L147.09,2a2.17,2.17,0,0,0-1.74-1H132.79c-1.85,0-2.93,1.62-1.85,3ZM71.9,3.06V63.94A2.06,2.06,0,0,0,74,66h47.56a2.06,2.06,0,0,0,2.06-2.06V55.71a2.06,2.06,0,0,0-2.06-2.06H85V38.48h36.18a2,2,0,0,0,2.06-2V28.19a2.13,2.13,0,0,0-2.06-2.06H85V13.35h36.51a2.06,2.06,0,0,0,2.06-2.06V3.06A2.06,2.06,0,0,0,121.52,1H74A2.06,2.06,0,0,0,71.9,3.06ZM13.51,19.85h.11m34,24.7h.1V3.06A2.06,2.06,0,0,1,49.8,1h8.89a2.12,2.12,0,0,1,2.05,2.06v61a2,2,0,0,1-2.05,2H49.48a6.62,6.62,0,0,1-4.55-2.17l-31.42-44V63.94A2.06,2.06,0,0,1,11.45,66H2.68A2.14,2.14,0,0,1,.62,63.94V3A2,2,0,0,1,2.68,1H12.86a6.62,6.62,0,0,1,4.55,2.17Z"/></svg>