<svg id="Calque_1" data-name="Calque 1" xmlns="http://www.w3.org/2000/svg" viewBox="0 0 254.21 68"><title>TOPPlan de travail 1</title><path d="M238.18,4.15,218.62,50.33,199.91,4.15A3.22,3.22,0,0,0,196.81,2H186a1.89,1.89,0,0,0-1.82,2.78L210,65.09a1.91,1.91,0,0,0,1.82,1.17h13.68a1.92,1.92,0,0,0,1.82-1.17l25.55-60.3A1.92,1.92,0,0,0,251,2h-9.73A3.22,3.22,0,0,0,238.18,4.15ZM128,4.15V64.23a2,2,0,0,0,2,2h46.93a2,2,0,0,0,2-2V56.11a2,2,0,0,0-2-2h-36v-15H176.6a2,2,0,0,0,2-2V29a2.1,2.1,0,0,0-2-2H140.89V14.3h36a2,2,0,0,0,2-2V4.15a2,2,0,0,0-2-2H130A2,2,0,0,0,128,4.15Zm-10,60.08-2.57-24.7c-.43-4.16-4.38-5.34-5.66-5.66,4.38-.86,9.19-6.42,9.19-13.26C118.87,6.07,110.1,1.05,94,1.05H64.13a2,2,0,0,0-2,2V64.23a2,2,0,0,0,2,2h9a2.1,2.1,0,0,0,2-2V40.5h23.1c3.52,0,4.27,2.14,4.49,3.85l2.35,19.88a2,2,0,0,0,2,2h8.77A2.1,2.1,0,0,0,117.91,64.23ZM94.07,27.77H75.14V13.56H94.07c6.63,0,10.9,2.13,10.9,7C105,26.28,100.16,27.77,94.07,27.77ZM32.7,28.1H14.1V12.91H32.7c6.63,0,10.91,2.68,10.91,7.59C43.61,26.17,38.79,28.1,32.7,28.1ZM.84,3.08V64.23a2,2,0,0,0,2,2h9.2a2.1,2.1,0,0,0,2-2V39.86H34.52c14.11,0,22.77-5.67,22.77-19.14,0-13.79-7.7-19.67-22.88-19.67H2.87A2,2,0,0,0,.84,3.08Z"/></svg>